HIERARCHY
ROOT Hips
{
  OFFSET 43.0842 91.1655 101.099
  CHANNELS 6 Xposition Yposition Zposition Zrotation Xrotation Yrotation
  JOINT LeftUpLeg
  {
    OFFSET 8.64259 1.95398 -2.38835
    CHANNELS 3 Zrotation Xrotation Yrotation
    JOINT LeftLeg
    {
      OFFSET 43.7702 0 0
      CHANNELS 3 Zrotation Xrotation Yrotation
      JOINT LeftFoot
      {
        OFFSET 40.6238 0 0
        CHANNELS 3 Zrotation Xrotation Yrotation
        JOINT LeftToeBase
        {
          OFFSET 12.7242 0 0
          CHANNELS 3 Zrotation Xrotation Yrotation
          End Site
          {
            OFFSET 0 0 0
          }
        }
      }
    }
  }
  JOINT RightUpLeg
  {
    OFFSET -8.2249 1.95398 -2.59336
    CHANNELS 3 Zrotation Xrotation Yrotation
    JOINT RightLeg
    {
      OFFSET 43.5653 0 0
      CHANNELS 3 Zrotation Xrotation Yrotation
      JOINT RightFoot
      {
        OFFSET 40.6238 0 0
        CHANNELS 3 Zrotation Xrotation Yrotation
        JOINT RightToeBase
        {
          OFFSET 12.7242 0 0
          CHANNELS 3 Zrotation Xrotation Yrotation
          End Site
          {
            OFFSET 0 0 0
          }
        }
      }
    }
  }
  JOINT Spine
  {
    OFFSET 0.165834 0.87714 6.61349
    CHANNELS 3 Zrotation Xrotation Yrotation
    JOINT Spine1
    {
      OFFSET 7.38963 1.71661e-005 0
      CHANNELS 3 Zrotation Xrotation Yrotation
      JOINT Spine2
      {
        OFFSET 11.9445 1.14441e-005 0
        CHANNELS 3 Zrotation Xrotation Yrotation
        JOINT Spine3
        {
          OFFSET 14.7254 4.19617e-005 0
          CHANNELS 3 Zrotation Xrotation Yrotation
          JOINT Spine4
          {
            OFFSET 10.9679 0 0
            CHANNELS 3 Zrotation Xrotation Yrotation
            JOINT RightShoulder
            {
              OFFSET 2.46616 -1.6653 3.69651
              CHANNELS 3 Zrotation Xrotation Yrotation
              JOINT RightArm
              {
                OFFSET 13.0012 0 0
                CHANNELS 3 Zrotation Xrotation Yrotation
                JOINT RightForeArm
                {
                  OFFSET 28.7848 1.52588e-005 0
                  CHANNELS 3 Zrotation Xrotation Yrotation
                  JOINT RightHand
                  {
                    OFFSET 26.5688 1.52588e-005 0
                    CHANNELS 3 Zrotation Xrotation Yrotation
                    End Site
                    {
                      OFFSET 0 0 0
                    }
                  }
                }
              }
            }
            JOINT LeftShoulder
            {
              OFFSET 2.38034 -1.29275 -3.7523
              CHANNELS 3 Zrotation Xrotation Yrotation
              JOINT LeftArm
              {
                OFFSET 16.3182 6.10351e-005 0
                CHANNELS 3 Zrotation Xrotation Yrotation
                JOINT LeftForeArm
                {
                  OFFSET 27.0901 0 0
                  CHANNELS 3 Zrotation Xrotation Yrotation
                  JOINT LeftHand
                  {
                    OFFSET 24.5451 1.52588e-005 0
                    CHANNELS 3 Zrotation Xrotation Yrotation
                    End Site
                    {
                      OFFSET 0 0 0
                    }
                  }
                }
              }
            }
            JOINT Neck
            {
              OFFSET 5.0226 -0.0266342 0
              CHANNELS 3 Zrotation Xrotation Yrotation
              JOINT Head
              {
                OFFSET 6.69364 2.86102e-005 0
                CHANNELS 3 Zrotation Xrotation Yrotation
                End Site
                {
                  OFFSET 0 0 0
                }
              }
            }
          }
        }
      }
    }
  }
}
MOTION
Frames:	18
Frame Time:	0.0333333
96.9243 94.3083 -4.14495 92.1159 -30.1585 90.1341 -173.977 0.67842 92.6876 -15.3294 2.70939 -1.90279 62.8374 0.92608 12.6676 33.0098 4.84287 0.994723 175.158 12.386 81.3049 -11.0032 -0.868737 -2.23915 53.6015 3.66996 6.66392 27.8964 -0.329604 2.23633 -0.154781 7.04589 -89.5766 12.7817 -0.104737 0.858769 1.1105 -0.066846 0.862537 -21.4227 -0.357984 0.787598 -1.41004 -0.357994 0.787587 94.0182 -54.6157 -93.9423 6.8779 19.6361 -19.4993 -9.09748 9.12842 -69.9219 -2.50295 1.37415 7.90921 -96.4095 -51.1404 69.5916 4.05731 29.1575 -49.2893 22.8113 -9.63403 -111.361 10.8825 0.52864 5.53223 -19.4618 -19.8983 -7.43931 5.7719 -21.4046 -13.5835 
96.9766 94.2487 -4.2301 92.3383 -30.3042 90.206 -173.926 0.623971 92.6349 -15.772 3.86615 -2.03235 62.8281 1.14019 13.6007 32.932 4.59775 1.271 175.115 12.3183 81.181 -11.1867 -0.963535 -2.27441 53.8631 3.49476 6.86878 27.9243 -0.23963 1.95127 -0.204507 7.00126 -89.5661 12.8713 -0.198114 0.891384 1.20008 -0.158677 0.899231 -21.3332 -0.456833 0.790646 -1.32054 -0.456839 0.790641 94.1071 -53.4418 -93.9806 8.02449 23.4377 -22.3149 -4.94816 10.7561 -71.8683 -0.611541 2.17527 9.02576 -95.7981 -50.6536 70.3309 4.42537 28.2019 -49.7277 20.7198 -8.76237 -111.848 10.6298 0.401932 6.28583 -21.1468 -19.0705 -7.17012 3.77755 -20.5713 -14.454 
97.019 94.1704 -4.34541 92.4623 -30.2491 90.1984 -173.678 0.803794 92.6724 -16.3358 4.95573 -2.31475 62.7095 1.56005 14.4376 33.1132 4.75791 1.40395 175.137 12.4573 81.0618 -11.618 -1.00894 -2.33375 54.1164 3.63691 6.65927 27.7237 -0.0908413 1.84425 -0.189909 7.00314 -89.5635 12.8674 -0.167923 0.892904 1.19617 -0.128455 0.89942 -21.337 -0.428512 0.801162 -1.32436 -0.428498 0.801164 94.8701 -51.9927 -93.0446 9.16164 27.7016 -25.6366 -3.50213 9.72288 -73.8454 -1.16477 2.16652 10.4314 -95.9117 -50.545 70.1324 4.89126 26.1789 -51.1332 19.5536 -7.30328 -112.024 10.9923 0.383899 7.18954 -22.2287 -18.6144 -7.98627 1.86592 -20.0279 -14.3559 
97.0125 94.0476 -4.49536 92.641 -30.202 90.2257 -173.458 1.16369 92.6795 -17.2786 6.65098 -2.56694 62.5034 1.89244 15.6413 33.3994 4.87831 1.86844 175.239 12.9127 80.8966 -12.8061 -1.13648 -2.47699 54.5107 3.61212 7.03516 27.9556 -0.101073 1.52978 -0.199446 7.02045 -89.5441 12.8329 -0.177692 0.932848 1.16158 -0.136441 0.939756 -21.3714 -0.449826 0.836324 -1.35876 -0.449826 0.836328 95.1685 -50.5706 -92.7833 10.1805 30.5422 -28.8796 -4.72048 8.51453 -74.4078 -2.09598 1.9191 11.2069 -95.8351 -50.3974 70.1993 4.69377 24.5135 -52.4108 19.6259 -6.44672 -111.695 11.4028 0.350771 8.40893 -22.834 -17.8091 -8.71771 0.558377 -19.142 -13.6391 
97.0226 93.8737 -4.65056 93.1976 -30.0102 90.4222 -173.183 1.34091 92.6946 -18.5422 8.61177 -2.73043 62.3967 2.29846 16.907 33.5215 4.83301 2.25112 175.019 13.0326 80.6552 -13.9069 -1.4676 -2.4064 54.9741 3.67951 6.61393 28.2979 -0.415453 1.87547 -0.203383 7.07458 -89.5126 12.7244 -0.170986 0.994262 1.05311 -0.127039 1.00081 -21.4795 -0.46189 0.896919 -1.46688 -0.461875 0.896916 95.3936 -49.7861 -92.5408 9.93108 32.2281 -30.897 -6.12375 7.53333 -74.5749 -3.05098 1.53669 11.0246 -95.6999 -50.2073 70.3394 3.8083 22.8278 -53.2711 19.4512 -4.63876 -111.169 11.905 0.474741 8.27598 -23.4554 -17.105 -9.34084 -0.29255 -18.4264 -13.1601 
97.0603 93.7501 -4.79648 93.6927 -29.9615 90.7533 -172.778 1.65879 92.8267 -19.9077 8.69731 -2.83883 62.5514 2.70963 17.0008 33.7581 5.16008 2.20853 174.842 12.9924 80.5624 -14.6423 -2.29596 -2.33432 55.2999 3.64438 6.00321 28.5211 -0.52929 1.85523 -0.162508 7.10782 -89.5339 12.6578 -0.100232 0.943087 0.986464 -0.0586281 0.946576 -21.5463 -0.379044 0.869369 -1.53365 -0.379021 0.869375 95.4804 -49.0588 -92.5024 8.56773 32.5059 -31.6101 -7.5931 7.10525 -74.0619 -4.37035 0.946632 10.0653 -96.2859 -50.6143 69.6077 3.05355 21.1345 -54.1291 19.3426 -2.75997 -110.136 11.9816 0.568837 7.42745 -24.3353 -16.5936 -9.18855 -0.377127 -17.9911 -13.3483 
97.1091 93.6552 -4.922 93.9963 -29.9842 91.2197 -172.402 2.03224 93.205 -21.0148 9.18143 -2.93499 62.6849 2.79148 17.3009 34.1863 5.68102 2.26371 174.82 12.9582 80.7543 -15.0938 -2.1897 -2.30345 55.2701 3.58658 5.99498 28.7497 -0.804697 2.27601 -0.147496 7.1453 -89.5746 12.5828 -0.0902135 0.860514 0.911583 -0.0522605 0.863643 -21.6216 -0.344655 0.793624 -1.60894 -0.344647 0.793623 95.306 -48.8255 -92.8076 6.6234 31.096 -31.903 -9.2764 7.61837 -72.5804 -6.40944 0.0576591 8.29986 -96.5759 -50.8766 69.2676 1.90946 19.3135 -55.022 19.3695 -0.468633 -108.939 12.4637 0.731055 6.76258 -24.8757 -15.8884 -9.3064 0.112249 -17.3904 -13.1827 
97.2094 93.5592 -5.04374 94.3848 -30.12 91.6269 -172.105 1.96528 93.4646 -21.6413 9.57233 -3.00982 62.8705 3.07212 17.5258 34.47 6.05854 2.2345 174.724 12.8318 80.8485 -15.4574 -2.64349 -2.24175 55.3324 3.48852 5.87267 29.136 -0.787751 1.64422 -0.166859 7.16211 -89.5861 12.5494 -0.134213 0.84249 0.878229 -0.0970006 0.847574 -21.6551 -0.381201 0.76321 -1.64245 -0.38121 0.763207 95.0655 -49.4101 -93.1027 4.39487 28.3759 -32.0245 -10.676 8.84203 -70.4448 -7.41169 -0.438896 6.1737 -96.5357 -50.771 69.2929 0.933417 18.6265 -55.3262 20.4626 0.360811 -107.909 12.2788 0.755137 6.03301 -25.6466 -15.2262 -9.62403 0.83178 -16.8762 -12.5311 
97.3356 93.4956 -5.10559 94.6442 -30.2675 91.9244 -171.757 1.89725 93.7103 -22.1114 10.4804 -3.20656 63.0496 3.37876 18.042 34.269 5.72369 2.38773 174.697 12.7254 80.9287 -15.7283 -2.98966 -2.24482 55.3959 3.47747 5.57013 29.4651 -1.16365 2.20649 -0.2078 7.18126 -89.6169 12.5115 -0.230414 0.791817 0.840351 -0.195335 0.801181 -21.6934 -0.457738 0.685966 -1.68078 -0.457729 0.685966 94.7161 -49.6822 -93.6074 3.12239 25.9632 -31.896 -11.2253 9.41842 -69.0557 -8.17477 -0.77158 4.80785 -96.464 -50.687 69.3708 -0.122911 17.7558 -55.2551 20.8091 1.21026 -107.352 13.5308 1.06409 5.28676 -25.9698 -14.8748 -9.13108 1.37763 -16.5862 -12.9134 
97.4527 93.3879 -5.18155 94.76 -30.7241 92.0966 -171.583 1.69576 93.747 -22.1869 10.6661 -3.25357 63.1712 3.91695 18.5557 34.317 5.6777 2.59867 174.771 13.0104 80.9662 -16.3338 -2.91156 -2.267 55.6902 3.26848 5.99337 29.3628 -1.08615 2.14214 -0.202572 7.19557 -89.6392 12.4829 -0.230771 0.747235 0.81178 -0.197665 0.756657 -21.7222 -0.444675 0.643336 -1.70954 -0.444668 0.643331 94.5399 -50.0242 -93.83 2.55651 23.8211 -31.8101 -11.9366 9.38417 -68.2405 -9.20219 -1.1049 4.54234 -96.3375 -50.3755 69.4579 -1.41126 16.5946 -55.7526 20.925 2.5028 -107.2 13.9672 1.1314 5.52412 -26.0156 -14.7253 -9.05798 1.92629 -16.4874 -12.8695 
97.6359 93.3173 -5.2686 94.8077 -31.3319 92.153 -171.525 1.39136 93.5627 -22.0785 10.5541 -3.24865 63.1939 4.37498 18.9911 34.4631 5.69521 2.93235 174.803 13.3292 80.8788 -16.7466 -2.93166 -2.25003 55.7583 3.32204 6.47197 29.5277 -1.24952 2.35514 -0.179597 7.18416 -89.6451 12.5056 -0.188002 0.730615 0.834496 -0.155681 0.738179 -21.6994 -0.398893 0.640342 -1.68678 -0.39889 0.640336 94.3989 -50.6817 -93.949 2.24492 22.0697 -31.6942 -13.0711 9.05238 -67.7311 -9.93706 -1.34403 4.28029 -95.8683 -49.765 69.9564 -2.28153 15.6517 -55.8966 19.8108 3.51967 -107.087 14.6111 1.17555 6.68602 -25.8949 -14.6181 -9.44735 2.22423 -16.3994 -12.2817 
97.7685 93.1943 -5.40093 94.6989 -32.187 92.1871 -171.25 1.53583 93.5162 -22.4619 10.2271 -3.44297 63.2711 4.76296 19.3254 34.8655 6.1513 3.06011 174.983 13.9136 80.8983 -17.2105 -2.7702 -2.26335 55.8429 3.32923 6.84289 29.4083 -1.51939 3.31912 -0.132145 7.18933 -89.6864 12.4951 -0.113165 0.639509 0.823993 -0.0849215 0.643871 -21.7101 -0.300117 0.575937 -1.69747 -0.300138 0.575936 94.3382 -50.7393 -94.0332 2.654 21.184 -31.8981 -12.748 8.64578 -67.9592 -10.7944 -1.59245 4.67429 -95.6259 -49.5525 70.2483 -1.88297 15.2594 -56.2316 19.4451 3.52847 -106.933 14.6286 1.21322 6.19855 -25.2542 -14.6529 -9.13282 2.30701 -16.3345 -12.0109 
97.9838 93.1255 -5.55408 94.7471 -33.298 92.3082 -170.905 1.38292 93.4061 -22.5996 9.73858 -3.62198 63.1941 4.97181 19.7683 34.9308 6.36829 2.79388 175.197 14.3814 80.9237 -17.6436 -2.58699 -2.3547 55.7191 3.30614 8.18021 29.5678 -1.50281 3.02837 -0.0616774 7.20061 -89.7098 12.4722 0.0156002 0.577738 0.801164 0.0409891 0.576486 -21.733 -0.15875 0.555718 -1.72037 -0.158747 0.555716 93.9957 -51.2257 -94.4823 2.63756 20.4063 -32.0168 -12.4774 8.43035 -68.1112 -11.6408 -1.8421 5.08217 -95.5907 -49.4688 70.2749 -1.64916 14.3072 -56.1408 20.1181 3.68793 -106.689 14.5799 1.228 5.88245 -25.3732 -14.6189 -8.94371 3.04871 -16.3721 -12.0842 
98.1701 93.0281 -5.69113 94.6928 -34.109 92.4648 -170.662 1.50625 93.3722 -23.0826 10.3773 -3.70194 63.0607 5.12359 20.8647 35.0123 6.40561 2.92953 175.265 14.9696 80.9252 -18.2696 -2.42366 -2.23624 55.779 3.36474 9.0333 29.4708 -1.52913 3.25196 -0.01398 7.20783 -89.7673 12.4579 0.0829705 0.455397 0.786834 0.102944 0.451297 -21.7477 -0.0577348 0.459282 -1.73504 -0.0577133 0.459279 94.1891 -51.4085 -94.1602 2.67409 19.3136 -32.8319 -12.9055 8.4965 -67.4335 -11.1249 -1.68323 5.00439 -95.3076 -49.1389 70.5935 -2.40522 12.4559 -55.9312 20.1235 4.58854 -106.295 16.0135 1.43205 7.21826 -25.0624 -14.6426 -8.59982 3.0827 -16.3351 -11.9796 
98.2967 92.8312 -5.79284 94.128 -34.8039 92.7072 -170.118 2.61776 93.8137 -24.4198 11.1297 -3.88971 63.1093 5.66952 21.7526 35.1817 6.49305 3.19368 175.682 15.7048 81.3893 -18.5933 -2.03627 -2.14604 55.9832 3.53161 9.40629 29.2729 -1.35569 3.0516 0.00732713 7.15882 -89.8986 12.5566 0.0629597 0.195568 0.885641 0.0715144 0.19261 -21.6494 0.00127192 0.205458 -1.63678 0.00125306 0.205446 94.4288 -51.485 -93.7844 1.77883 17.6911 -33.5625 -12.4358 8.84217 -66.9535 -11.0838 -1.67121 4.98166 -95.2454 -49.3415 70.7472 -3.00856 9.83343 -54.6986 20.4238 5.1983 -106.131 16.1771 1.47505 7.08398 -24.614 -14.6419 -7.34256 3.12687 -16.2124 -12.1346 
98.4449 92.5899 -5.89361 93.5108 -35.5722 93.1658 -169.437 4.02977 94.5106 -26.0807 11.7647 -4.12787 63.2405 6.35459 22.6537 35.4386 6.69731 3.45174 176.168 16.321 82.1123 -18.7892 -1.53128 -2.05306 56.4929 3.30202 9.99849 28.9393 -0.699111 1.69499 0.0301877 7.11413 -90.0662 12.6452 0.0283628 -0.135965 0.974281 0.0223503 -0.137091 -21.5608 0.0679272 -0.121154 -1.54815 0.0678992 -0.121163 94.4966 -50.7474 -93.7892 1.97519 16.1388 -34.3836 -13.5215 8.13308 -66.619 -12.8209 -2.20969 5.31303 -95.2361 -49.7588 70.8868 -4.17972 5.66215 -52.262 20.0993 6.10034 -105.953 16.2287 1.48585 7.08273 -23.9133 -14.7455 -6.04997 2.86933 -16.155 -12.2959 
98.7244 92.2394 -5.99118 92.9926 -36.23 93.3772 -168.597 5.23603 94.9571 -27.743 12.2031 -4.36798 63.2438 7.27306 23.3117 35.9597 7.44047 3.30413 176.121 17.5531 82.2884 -20.2437 -0.964113 -1.56912 57.2813 3.16125 10.5831 29.4304 -0.781929 1.16691 0.0471584 7.09635 -90.1608 12.6813 0.0169235 -0.323142 1.01035 0.0026888 -0.323585 -21.5245 0.113254 -0.303122 -1.51189 0.113249 -0.303122 94.5436 -50.7782 -93.7133 1.90258 14.5846 -35.7646 -16.2597 6.26305 -66.3508 -14.7625 -2.818 5.57918 -95.1039 -50.012 71.1563 -5.0656 1.67086 -48.213 19.8304 5.66931 -106.211 15.8467 1.41319 7.05529 -23.1462 -14.7395 -5.33543 2.88475 -16.0391 -12.0972 
98.916 91.7241 -6.00816 91.962 -36.1047 93.5876 -168.187 7.5333 95.6365 -30.4641 14.2867 -4.351 63.3771 7.86842 24.5585 36.2806 7.87313 3.25724 176.337 19.0395 82.8025 -22.2538 -0.709668 -1.30194 58.3395 2.60756 10.4582 30.6685 -1.21639 0.462698 0.0849798 7.0428 -90.3093 12.7879 0.020819 -0.620747 1.11678 -0.00651446 -0.621065 -21.4173 0.206391 -0.585798 -1.40464 0.20641 -0.5858 94.7246 -50.8066 -93.4317 1.28228 13.7836 -36.4491 -19.2145 3.24644 -67.1685 -17.7359 -3.74803 4.92466 -95.4707 -50.8998 70.8823 -4.53704 -0.849333 -42.9952 18.1933 4.47002 -107.542 18.5387 1.91606 8.28289 -22.247 -14.9452 -4.66301 2.83366 -16.1455 -12.0856 
